<svg width="72" height="72" viewBox="0 0 72 72" fill="none" xmlns="http://www.w3.org/2000/svg">
<g clip-path="url(#clip0_100_1462)">
<path d="M17.1201 5.53744C17.2616 5.45029 17.4132 5.35979 17.5783 5.26258C17.7434 5.16537 17.9085 5.07487 18.077 4.99442C18.2455 4.91062 18.4072 4.84358 18.5655 4.78995C18.7205 4.73632 18.8688 4.70951 19.0036 4.70951C19.2967 4.70615 19.5898 4.76984 19.8796 4.90392C20.1694 5.038 20.4153 5.26593 20.6209 5.59442C20.8365 5.93967 20.9376 6.29163 20.9275 6.64694C20.9174 7.00224 20.7927 7.33744 20.5568 7.65252L20.5669 7.66928C21.0218 7.50504 21.4463 7.49833 21.8338 7.64582C22.2213 7.79331 22.5414 8.06817 22.7907 8.4704C22.939 8.70839 23.0401 8.96649 23.094 9.24135C23.1479 9.51956 23.1445 9.79777 23.0839 10.0726C23.0232 10.3508 22.9019 10.6157 22.72 10.8771C22.538 11.1352 22.2853 11.3665 21.9619 11.5643L18.798 13.5117L14.748 6.99889L17.1235 5.53744H17.1201ZM19.1013 8.18884C19.5966 7.88381 19.8998 7.57878 20.0076 7.2704C20.1154 6.96202 20.0649 6.63688 19.8493 6.29163C19.7044 6.06034 19.5561 5.89945 19.3978 5.8123C19.2428 5.72515 19.0743 5.68157 18.9025 5.68828C18.7273 5.69498 18.5521 5.73856 18.3701 5.819C18.1882 5.89945 18.0029 6.00001 17.8142 6.11733L16.0722 7.18995L17.3593 9.26146L19.1013 8.18884ZM21.3958 10.9039C21.7799 10.6659 22.0191 10.3777 22.1067 10.0391C22.1943 9.70057 22.127 9.34526 21.8978 8.9799C21.7664 8.76872 21.6148 8.61453 21.4497 8.52403C21.2846 8.43353 21.1094 8.3866 20.9275 8.3866C20.7455 8.3866 20.5568 8.42012 20.3648 8.49386C20.1727 8.56425 19.984 8.65811 19.8021 8.77208L17.8108 9.99554L19.2125 12.2481L21.3958 10.9039Z" fill="white"/>
<path d="M23.0059 4.92066C23.0126 4.41451 23.1103 3.93853 23.299 3.49272C23.4877 3.04691 23.7673 2.65138 24.1447 2.30948C24.5221 1.96423 25.0005 1.70613 25.5868 1.52848C26.1731 1.35417 26.7155 1.3039 27.2209 1.38434C27.7263 1.46479 28.1812 1.63574 28.5855 1.9039C28.9899 2.17205 29.3369 2.51395 29.6233 2.92959C29.9131 3.34859 30.1321 3.80445 30.2837 4.3039C30.4353 4.80334 30.5094 5.30613 30.4993 5.81228C30.4926 6.31842 30.3949 6.7944 30.2062 7.24021C30.0175 7.68602 29.7379 8.0782 29.3605 8.4201C28.9831 8.762 28.5013 9.0201 27.9184 9.1944C27.3321 9.37205 26.7897 9.41898 26.2843 9.34524C25.7788 9.26814 25.3274 9.09719 24.923 8.82904C24.5187 8.56088 24.1717 8.21898 23.8853 7.80334C23.5955 7.38434 23.3765 6.92848 23.2249 6.42904C23.0732 5.92959 22.9991 5.4268 23.0092 4.92066H23.0059ZM24.6804 7.18658C24.886 7.51842 25.1353 7.79328 25.4284 8.02121C25.7216 8.2458 26.0585 8.39663 26.4325 8.47373C26.8099 8.55082 27.2209 8.52066 27.6691 8.38658C28.1172 8.2525 28.4743 8.04803 28.7439 7.77652C29.0134 7.50501 29.2089 7.19328 29.3268 6.84468C29.4447 6.49607 29.4986 6.12736 29.4852 5.73853C29.4717 5.34971 29.411 4.97093 29.2965 4.60222C29.1819 4.2335 29.0235 3.88155 28.818 3.55306C28.6125 3.22121 28.3632 2.94635 28.07 2.71842C27.7769 2.49384 27.4399 2.343 27.0659 2.26591C26.6886 2.18881 26.2775 2.21563 25.8294 2.35306C25.3813 2.48714 25.0241 2.69161 24.7546 2.96311C24.485 3.23462 24.2896 3.54635 24.1717 3.89496C24.0537 4.24356 23.9998 4.61228 24.0133 5.0011C24.0268 5.38993 24.0874 5.7687 24.202 6.13741C24.3132 6.50613 24.4749 6.85809 24.6804 7.18658Z" fill="white"/>
<path d="M31.8873 2.57765C32.0322 2.09161 32.2545 1.65921 32.5544 1.28044C32.8543 0.901669 33.235 0.596642 33.6899 0.365357C34.1448 0.134072 34.6771 0.0134014 35.2903 -6.45942e-06C35.9002 -0.0134143 36.4393 0.0871444 36.9043 0.298318C37.3692 0.509491 37.7601 0.797759 38.0768 1.16312C38.3935 1.52849 38.6328 1.95083 38.7979 2.43016C38.963 2.90949 39.0506 3.40893 39.0607 3.93184C39.0708 4.45474 39.0034 4.95753 38.8619 5.44357C38.717 5.9296 38.4946 6.362 38.1947 6.74078C37.8949 7.11955 37.5141 7.42122 37.0593 7.64915C36.6044 7.87709 36.072 7.99776 35.4588 8.01117C34.8456 8.02457 34.3099 7.92737 33.8449 7.71619C33.3799 7.50837 32.9891 7.2201 32.6723 6.85474C32.3556 6.48938 32.113 6.06703 31.9513 5.5877C31.7862 5.10837 31.6986 4.60893 31.6885 4.08603C31.6784 3.56312 31.7458 3.06033 31.8873 2.5743V2.57765ZM32.888 5.20558C32.9958 5.57765 33.1609 5.91284 33.3833 6.20781C33.6057 6.50279 33.8887 6.73742 34.229 6.91508C34.5693 7.09273 34.9736 7.17318 35.442 7.16312C35.9103 7.15307 36.3113 7.05251 36.6448 6.8648C36.9784 6.67709 37.2513 6.42904 37.4602 6.12402C37.6691 5.81899 37.8207 5.47709 37.9117 5.10167C38.0027 4.72625 38.0465 4.34078 38.0397 3.9553C38.033 3.56983 37.9724 3.19105 37.8645 2.81564C37.7567 2.44357 37.5916 2.10837 37.3692 1.8134C37.1469 1.51843 36.8638 1.28379 36.5235 1.10614C36.1832 0.931837 35.7789 0.848038 35.3106 0.858094C34.8422 0.86815 34.4413 0.968709 34.1077 1.15642C33.7741 1.34413 33.5012 1.59217 33.2923 1.8972C33.0834 2.20223 32.9318 2.54413 32.8408 2.91955C32.7498 3.29497 32.706 3.67709 32.7128 4.06592C32.7195 4.45474 32.7802 4.83016 32.888 5.20558Z" fill="white"/>
<path d="M42.7172 0.74748L41.8277 4.46145L46.5145 1.6458L47.805 1.95083L43.9302 4.21005L46.1506 9.43239L44.8905 9.13407L43.0845 4.72625L41.5582 5.5877L40.9348 8.19552L39.9375 7.96089L41.7199 0.509491L42.7172 0.744128V0.74748Z" fill="white"/>
<path d="M54.2025 4.99777L54.1453 12.4022L54.1621 12.4156L57.6022 7.23353L58.4109 7.76649L54.1688 14.1587L53.2322 13.5453L53.2793 6.21118L53.2625 6.19777L49.8594 11.3263L49.0508 10.7933L53.2928 4.40112L54.2025 4.99777Z" fill="white"/>
<path d="M58.9977 11.2559C59.4626 11.0514 59.9377 10.9441 60.4229 10.9274C60.9081 10.9106 61.3865 11.0045 61.8583 11.1989C62.33 11.3967 62.768 11.7218 63.1723 12.1777C63.5766 12.6335 63.8462 13.1062 63.9843 13.5955C64.1225 14.0849 64.1528 14.5676 64.0753 15.0436C63.9978 15.5196 63.8293 15.9754 63.5699 16.4112C63.3071 16.8469 62.9803 17.2358 62.586 17.581C62.1918 17.9263 61.7639 18.2011 61.2956 18.4056C60.8306 18.6101 60.3522 18.7173 59.8703 18.7341C59.3851 18.7508 58.9101 18.657 58.4384 18.4592C57.9666 18.2615 57.532 17.933 57.131 17.4771C56.7301 17.0212 56.4538 16.5486 56.3156 16.0626C56.1741 15.5765 56.1438 15.0939 56.2213 14.6179C56.2988 14.1419 56.4673 13.686 56.7267 13.2503C56.9895 12.8145 57.3164 12.4257 57.7106 12.0805C58.1048 11.7352 58.5327 11.4603 59.001 11.2559H58.9977ZM57.623 13.7129C57.4073 14.0346 57.2557 14.3765 57.1715 14.7386C57.0872 15.0972 57.0872 15.4626 57.1715 15.838C57.2557 16.2134 57.4545 16.5721 57.7645 16.9207C58.0745 17.2693 58.408 17.5106 58.7685 17.6414C59.1291 17.7721 59.493 17.819 59.8636 17.7821C60.2342 17.7453 60.5914 17.638 60.9418 17.4671C61.2922 17.2927 61.6123 17.0782 61.9021 16.8235C62.1918 16.5687 62.4479 16.2805 62.6635 15.9553C62.8792 15.6335 63.0308 15.2916 63.115 14.9296C63.1993 14.571 63.1993 14.2022 63.115 13.8302C63.0274 13.4581 62.832 13.0961 62.522 12.7475C62.212 12.3989 61.8785 12.1576 61.518 12.0268C61.1574 11.8961 60.7935 11.8492 60.4229 11.886C60.0523 11.9229 59.6951 12.0302 59.3447 12.2011C58.9943 12.3754 58.6742 12.59 58.3844 12.8447C58.0947 13.0995 57.8386 13.3877 57.623 13.7129Z" fill="white"/>
<path d="M62.5695 26.0548L67.7583 21.8313L67.7482 21.8112L61.1173 22.8235L60.6826 21.8548L66.9058 16.9374L67.3337 17.886L62.1045 21.8581L62.1146 21.8782L68.6646 20.8458L69.1161 21.8548L63.9644 26.0011L63.9745 26.0212L70.4605 24.8413L70.8783 25.7732L63.0108 27.0302L62.5762 26.0615L62.5695 26.0548Z" fill="white"/>
<path d="M71.9869 34.7564C71.9903 34.9207 71.997 35.0983 71.997 35.286C71.997 35.4737 71.997 35.6648 71.9835 35.8492C71.9701 36.0369 71.9498 36.2112 71.9195 36.3721C71.8892 36.533 71.8386 36.6738 71.7713 36.7911C71.6297 37.0458 71.4276 37.2637 71.1648 37.4481C70.9053 37.6324 70.5785 37.7296 70.191 37.7397C69.7833 37.7531 69.4262 37.6659 69.1196 37.4782C68.8163 37.2905 68.5872 37.0156 68.4322 36.657H68.412C68.3278 37.133 68.1222 37.4983 67.7988 37.7598C67.4753 38.0212 67.0777 38.1587 66.6027 38.1721C66.323 38.1821 66.0467 38.1386 65.7805 38.0481C65.511 37.9575 65.2718 37.8134 65.0595 37.6257C64.8472 37.4346 64.6754 37.1967 64.5406 36.9117C64.4058 36.6268 64.3317 36.295 64.3216 35.9162L64.207 32.2156L71.9027 31.9777L71.9903 34.7531L71.9869 34.7564ZM65.1808 35.762C65.1943 36.2112 65.329 36.5598 65.5784 36.8078C65.8311 37.0525 66.1714 37.1698 66.6027 37.1564C66.8554 37.1497 67.0609 37.0961 67.2226 36.9989C67.3843 36.9017 67.5124 36.7743 67.6034 36.6168C67.6943 36.4592 67.7583 36.2816 67.792 36.0805C67.8257 35.8793 67.8392 35.6715 67.8325 35.457L67.7617 33.1307L65.0999 33.2112L65.1808 35.762ZM68.6883 35.1386C68.7051 35.7184 68.8231 36.1307 69.0353 36.3788C69.2476 36.6268 69.5576 36.7441 69.9687 36.7307C70.2416 36.724 70.4572 36.6737 70.6122 36.5832C70.7672 36.4927 70.8851 36.3721 70.966 36.2179C71.0468 36.0637 71.0974 35.8894 71.1176 35.6916C71.1378 35.4939 71.1446 35.286 71.1344 35.0648L71.0704 33.0268L68.6243 33.1006L68.6883 35.1386Z" fill="white"/>
<path d="M69.5877 40.133C70.0258 40.3911 70.393 40.7128 70.6861 41.095C70.9793 41.4771 71.1848 41.9162 71.2994 42.4123C71.4139 42.9084 71.4005 43.4514 71.2623 44.0447C71.1242 44.638 70.8951 45.1307 70.575 45.5263C70.2549 45.9218 69.8775 46.2268 69.4429 46.4447C69.0082 46.6592 68.5399 46.7899 68.0311 46.8302C67.5223 46.8704 67.0135 46.8302 66.5014 46.7162C65.9892 46.5989 65.5142 46.4112 65.0762 46.1531C64.6381 45.895 64.2709 45.5732 63.9777 45.1911C63.6812 44.8089 63.4791 44.3698 63.3713 43.8737C63.2601 43.3776 63.2735 42.8346 63.4117 42.2413C63.5498 41.648 63.7756 41.1553 64.0923 40.7564C64.409 40.3609 64.783 40.0525 65.2177 39.838C65.6523 39.6235 66.1207 39.4927 66.6294 39.4525C67.1382 39.4123 67.647 39.4525 68.1591 39.5665C68.6713 39.6838 69.1463 39.8715 69.5844 40.1296L69.5877 40.133ZM66.781 40.4514C66.3902 40.4648 66.0229 40.5419 65.6826 40.6827C65.339 40.8235 65.0425 41.038 64.7864 41.3263C64.5303 41.6112 64.3517 41.9832 64.2473 42.4357C64.1428 42.8883 64.1395 43.3006 64.2439 43.6693C64.345 44.038 64.5202 44.3598 64.7662 44.638C65.0121 44.9162 65.3086 45.1441 65.6523 45.3251C65.996 45.5061 66.3599 45.6402 66.7373 45.7274C67.1146 45.8145 67.4987 45.8514 67.8896 45.838C68.2804 45.8246 68.6477 45.7475 68.988 45.6067C69.3317 45.4659 69.6282 45.2514 69.8842 44.9631C70.1403 44.6782 70.3189 44.3061 70.4233 43.8536C70.5278 43.4011 70.5312 42.9888 70.4267 42.6201C70.3256 42.2514 70.1504 41.9296 69.9045 41.6514C69.6585 41.3732 69.362 41.1452 69.0183 40.9642C68.6746 40.7832 68.3107 40.6492 67.9334 40.562C67.556 40.4749 67.1719 40.438 66.781 40.4514Z" fill="white"/>
<path d="M67.2194 48.962C67.5698 49.3274 67.836 49.7363 68.0146 50.1855C68.1932 50.6346 68.2707 51.1106 68.2437 51.6201C68.2168 52.1263 68.0584 52.6492 67.7653 53.1821C67.4721 53.7151 67.1184 54.1307 66.7006 54.4257C66.2828 54.7207 65.838 54.9151 65.3629 55.0056C64.8878 55.0961 64.3993 55.0927 63.8972 54.9955C63.3986 54.8983 62.9168 54.724 62.4585 54.4726C61.9969 54.2212 61.5926 53.9128 61.2422 53.5475C60.8918 53.1821 60.6256 52.7732 60.447 52.324C60.2684 51.8749 60.1909 51.3989 60.2213 50.8927C60.2516 50.3866 60.4099 49.867 60.7031 49.3341C60.9962 48.8011 61.35 48.3855 61.7644 48.0905C62.1789 47.7955 62.6236 47.6011 63.0987 47.5106C63.5738 47.4201 64.0623 47.4235 64.561 47.5207C65.0597 47.6179 65.5415 47.7922 65.9997 48.0436C66.4613 48.295 66.8657 48.6033 67.2161 48.9687L67.2194 48.962ZM64.4296 48.5128C64.0522 48.419 63.6749 48.3955 63.3076 48.4391C62.9403 48.4827 62.5933 48.6067 62.2698 48.8145C61.9464 49.0223 61.6735 49.3274 61.4477 49.7363C61.222 50.1452 61.1108 50.5374 61.1074 50.9229C61.1074 51.305 61.1849 51.6637 61.3466 51.9955C61.5084 52.3274 61.7307 52.629 62.0138 52.8972C62.2968 53.1654 62.6068 53.3933 62.9471 53.5776C63.2874 53.762 63.6479 53.9028 64.0253 53.9933C64.406 54.0871 64.78 54.1106 65.1473 54.067C65.5145 54.0235 65.8616 53.8961 66.185 53.6916C66.5085 53.4838 66.7814 53.1754 67.0072 52.7698C67.2329 52.3609 67.3441 51.9654 67.3475 51.5832C67.3475 51.2011 67.27 50.8425 67.1082 50.5106C66.9465 50.1788 66.7241 49.8771 66.4411 49.6089C66.1581 49.3408 65.8481 49.1128 65.5078 48.9285C65.1675 48.7441 64.807 48.6033 64.4262 48.5128H64.4296Z" fill="white"/>
<path d="M63.4042 59.2123L60.611 56.5944L60.7256 62.038L59.8159 62.9966L59.7822 58.5285L54.125 57.838L55.0111 56.9028L59.7518 57.5464L59.7619 55.8L57.801 53.9598L58.5052 53.219L64.1051 58.4715L63.4042 59.2123Z" fill="white"/>
<path d="M53.9842 67.0022L47.5554 63.2715L47.5352 63.2816L50.3453 68.8257L49.4793 69.2615L46.0156 62.4235L47.0163 61.9207L53.3878 65.6078L53.408 65.5978L50.6283 60.1106L51.4942 59.6749L54.9579 66.5129L53.9842 66.9989V67.0022Z" fill="white"/>
<path d="M46.1364 68.0313C46.0825 68.5341 45.9376 69 45.7085 69.4257C45.4794 69.8514 45.1626 70.2167 44.755 70.5251C44.3473 70.8335 43.8452 71.048 43.2455 71.1687C42.6457 71.2894 42.0999 71.286 41.6046 71.1586C41.1093 71.0313 40.6746 70.8167 40.2973 70.5151C39.9199 70.21 39.6066 69.838 39.3606 69.3955C39.1113 68.9531 38.9361 68.4771 38.8316 67.9642C38.7272 67.4514 38.7036 66.9452 38.7575 66.4424C38.8148 65.9396 38.9563 65.4737 39.1854 65.048C39.4145 64.6223 39.7312 64.257 40.1389 63.9519C40.5466 63.6469 41.0486 63.4357 41.6484 63.3151C42.2481 63.1944 42.794 63.1944 43.2893 63.3184C43.7846 63.4424 44.2192 63.6536 44.5966 63.9586C44.974 64.2637 45.2873 64.6357 45.5333 65.0782C45.7826 65.5206 45.9578 65.9966 46.0623 66.5095C46.1667 67.0223 46.1903 67.5285 46.1364 68.0313ZM44.6842 65.6179C44.5124 65.2693 44.29 64.9709 44.0171 64.7195C43.7475 64.4681 43.4274 64.2871 43.0602 64.1732C42.6929 64.0592 42.2785 64.0525 41.8236 64.143C41.3687 64.2335 40.988 64.4044 40.6949 64.6491C40.4017 64.8938 40.176 65.1855 40.0244 65.524C39.8727 65.8625 39.7851 66.2246 39.7616 66.61C39.738 66.9989 39.7616 67.381 39.8424 67.7598C39.9199 68.1385 40.0446 68.5005 40.2164 68.8491C40.3916 69.1977 40.6106 69.4961 40.8835 69.7508C41.1565 70.0022 41.4732 70.1832 41.8405 70.2972C42.2077 70.4112 42.6221 70.4179 43.077 70.3274C43.5319 70.2369 43.9126 70.0659 44.2057 69.8212C44.5022 69.5765 44.7246 69.2849 44.8762 68.9464C45.0279 68.6112 45.1155 68.2458 45.1391 67.8603C45.1626 67.4715 45.1391 67.0894 45.0582 66.7106C44.9807 66.3318 44.856 65.9698 44.6842 65.6212V65.6179Z" fill="white"/>
<path d="M31.4665 63.724L32.5649 70.3039H32.5851L35.0043 64.0793L36.0657 64.1866L37.2584 72.0034L36.2173 71.8994L35.3581 65.4101H35.3379L32.9793 71.5743L31.8742 71.4637L30.8229 64.9542H30.8027L28.6059 71.1352L27.585 71.0346L30.4051 63.6201L31.4665 63.7274V63.724Z" fill="white"/>
<path d="M19.1889 67.5184C19.044 67.4413 18.8857 67.3575 18.7206 67.2637C18.5555 67.1698 18.3937 67.0726 18.2354 66.9687C18.0804 66.8648 17.9389 66.7609 17.8108 66.6536C17.6828 66.5464 17.5885 66.4324 17.5211 66.3184C17.3695 66.067 17.2818 65.7855 17.2515 65.4704C17.2212 65.1553 17.2987 64.8268 17.4806 64.4849C17.6727 64.1263 17.9288 63.8615 18.2421 63.6905C18.5588 63.5229 18.9093 63.4592 19.3001 63.5062L19.3102 63.486C18.9396 63.1743 18.7206 62.8156 18.6532 62.4067C18.5858 61.9978 18.6667 61.5855 18.889 61.1698C19.0204 60.9251 19.1956 60.7073 19.4079 60.5229C19.6236 60.3352 19.8662 60.2011 20.1357 60.114C20.4052 60.0268 20.6984 59.9967 21.0151 60.0235C21.3318 60.0503 21.6587 60.1508 21.9922 60.3319L25.274 62.0749L21.6452 68.8291L19.1822 67.5184H19.1889ZM20.4996 64.4849C19.9874 64.2134 19.5696 64.1061 19.2462 64.1665C18.9261 64.2268 18.6667 64.438 18.4746 64.7967C18.3466 65.0346 18.2825 65.2458 18.2825 65.4235C18.2825 65.6011 18.3297 65.7654 18.4241 65.9129C18.515 66.0603 18.6431 66.1911 18.8048 66.305C18.9665 66.419 19.1485 66.5296 19.3439 66.6335L21.1499 67.5955L22.3022 65.4469L20.4962 64.4849H20.4996ZM21.7058 61.1464C21.3082 60.9352 20.9376 60.8749 20.5973 60.9687C20.257 61.0626 19.9841 61.3006 19.7819 61.6793C19.664 61.9006 19.6067 62.105 19.6101 62.2927C19.6134 62.4805 19.6606 62.6548 19.7516 62.8123C19.8426 62.9698 19.9672 63.114 20.1256 63.2413C20.284 63.3687 20.4592 63.486 20.6478 63.5866L22.7099 64.6827L23.9633 62.3464L21.6991 61.143L21.7058 61.1464Z" fill="white"/>
<path d="M15.7017 62.7654C15.257 63.0134 14.7954 63.1709 14.3135 63.2313C13.8317 63.295 13.3465 63.2514 12.858 63.1006C12.3694 62.9497 11.9011 62.6681 11.4529 62.2559C11.0048 61.8436 10.6881 61.3978 10.5028 60.9251C10.3175 60.4525 10.24 59.9732 10.2669 59.4905C10.2939 59.0078 10.4186 58.5385 10.6342 58.0793C10.8498 57.6201 11.1396 57.2011 11.4967 56.819C11.8539 56.4369 12.2549 56.1218 12.6996 55.8737C13.1444 55.6257 13.606 55.4682 14.0878 55.4078C14.5696 55.3475 15.0514 55.3911 15.5366 55.5419C16.0218 55.6927 16.4901 55.9776 16.9383 56.3899C17.3864 56.8022 17.7031 57.248 17.8918 57.7173C18.0805 58.1866 18.158 58.6659 18.131 59.1486C18.1041 59.6313 17.9794 60.1006 17.7638 60.5598C17.5481 61.019 17.2584 61.438 16.9012 61.8201C16.5441 62.2022 16.1431 62.5173 15.6983 62.7654H15.7017ZM16.8237 60.1877C17.0057 59.8458 17.1236 59.4905 17.1708 59.1251C17.2179 58.7598 17.1809 58.3944 17.0596 58.0324C16.9383 57.6704 16.7058 57.3318 16.3621 57.0134C16.0218 56.6983 15.6647 56.4905 15.2907 56.3966C14.92 56.3028 14.5494 56.2894 14.1855 56.3631C13.8216 56.4369 13.4746 56.5776 13.1444 56.7821C12.8142 56.9899 12.5143 57.2346 12.2515 57.5162C11.9853 57.7978 11.7629 58.1128 11.581 58.4547C11.399 58.7966 11.2811 59.1519 11.2339 59.5173C11.1868 59.8827 11.2238 60.248 11.3451 60.6101C11.4664 60.9721 11.6989 61.3106 12.0426 61.629C12.3829 61.9441 12.7434 62.1519 13.114 62.2458C13.4847 62.343 13.8553 62.3531 14.2192 62.2793C14.5831 62.2056 14.9301 62.0648 15.2603 61.8603C15.5905 61.6525 15.8904 61.4078 16.1532 61.1263C16.4194 60.8447 16.6418 60.5296 16.8237 60.1877Z" fill="white"/>
<path d="M9.19503 56.3296C8.69973 56.4503 8.21454 56.4771 7.73273 56.4101C7.25091 56.343 6.79604 56.1721 6.36813 55.8972C5.93685 55.6224 5.56285 55.2268 5.24276 54.7073C4.92267 54.1877 4.73736 53.6782 4.68682 53.1721C4.63628 52.6659 4.68682 52.1833 4.84518 51.7274C5.00354 51.2715 5.24613 50.8525 5.5797 50.467C5.91327 50.0849 6.30411 49.7564 6.74887 49.4816C7.197 49.2101 7.66534 49.0123 8.16063 48.8916C8.65593 48.771 9.14112 48.7441 9.62294 48.8112C10.1048 48.8782 10.5563 49.0492 10.9842 49.3274C11.4121 49.6022 11.7861 50.0011 12.1062 50.5173C12.4263 51.0369 12.6116 51.5464 12.6655 52.0492C12.7194 52.552 12.6655 53.0346 12.5105 53.4905C12.3521 53.9464 12.1095 54.3687 11.776 54.7508C11.4424 55.133 11.0516 55.4615 10.6068 55.7363C10.1587 56.0078 9.68696 56.2056 9.19503 56.3263V56.3296ZM10.9741 54.1441C11.2436 53.8626 11.4491 53.5508 11.594 53.2123C11.7389 52.8738 11.7996 52.5117 11.7793 52.1296C11.7591 51.7475 11.6277 51.3587 11.3817 50.9631C11.1392 50.5676 10.8494 50.2726 10.5158 50.0816C10.1823 49.8905 9.83184 49.7833 9.46121 49.7564C9.09058 49.7296 8.71995 49.7732 8.34595 49.8838C7.97195 49.9944 7.61817 50.152 7.28797 50.3531C6.95777 50.5542 6.6579 50.7955 6.38835 51.0771C6.1188 51.3587 5.91327 51.6704 5.76838 52.009C5.6235 52.3475 5.56285 52.7095 5.58307 53.0916C5.60329 53.4738 5.73469 53.8626 5.98065 54.2581C6.22662 54.6536 6.51301 54.9486 6.84658 55.1397C7.18015 55.3307 7.53056 55.438 7.90119 55.4648C8.27182 55.4916 8.64245 55.4481 9.01645 55.3374C9.39045 55.2268 9.74424 55.0693 10.0744 54.8682C10.4046 54.6671 10.7045 54.4257 10.9741 54.1441Z" fill="white"/>
<path d="M2.13936 47.9263L5.81534 46.8235L1.01399 44.2089L0.629883 42.9453L4.54172 45.1441L7.96499 40.6089L8.33899 41.8425L5.41438 45.6101L6.9306 46.4883L9.51153 45.714L9.80804 46.6894L2.43923 48.9017L2.14273 47.9263H2.13936Z" fill="white"/>
<path d="M0.0606486 35.9196L6.51636 32.2324V32.2123L0.283027 31.8737L0.336937 30.9084L8.02246 31.3274L7.96181 32.4402L1.57349 36.1006V36.1207L7.73944 36.4559L7.68553 37.4212L0 37.0022L0.0606486 35.9196Z" fill="white"/>
<path d="M3.06553 28.6458C2.65446 28.3475 2.3209 27.9955 2.06145 27.5832C1.80538 27.1743 1.64365 26.7184 1.57627 26.2123C1.50888 25.7095 1.57627 25.1665 1.76495 24.5899C1.957 24.0134 2.23329 23.5441 2.58708 23.1788C2.94423 22.8134 3.34855 22.5452 3.80005 22.3709C4.25154 22.1966 4.73336 22.1128 5.24214 22.1195C5.75091 22.1262 6.25632 22.21 6.75161 22.3776C7.24691 22.5452 7.70514 22.7732 8.11621 23.0715C8.52727 23.3698 8.86084 23.7218 9.12028 24.1341C9.37972 24.5464 9.53808 24.9989 9.59873 25.5017C9.66275 26.0045 9.59873 26.5441 9.4033 27.1207C9.21125 27.6972 8.93833 28.1698 8.58455 28.5352C8.23076 28.9005 7.82981 29.1721 7.37832 29.3464C6.92682 29.5207 6.445 29.6045 5.93623 29.5978C5.42745 29.5911 4.92205 29.5073 4.42675 29.3397C3.92808 29.1754 3.47322 28.9441 3.06216 28.6458H3.06553ZM5.89242 28.5888C6.28327 28.6123 6.6539 28.5687 7.00768 28.4614C7.36147 28.3542 7.67819 28.1665 7.96122 27.905C8.24087 27.6436 8.45651 27.2916 8.6014 26.8525C8.74965 26.41 8.79008 26.0045 8.72269 25.6257C8.65531 25.2503 8.51379 24.9117 8.29478 24.6134C8.07577 24.3151 7.80286 24.0603 7.47603 23.8458C7.1492 23.6313 6.80215 23.4637 6.43489 23.343C6.06763 23.2223 5.68689 23.1486 5.29605 23.1251C4.9052 23.1017 4.53457 23.1452 4.18079 23.2525C3.827 23.3598 3.51028 23.5475 3.22726 23.8089C2.9476 24.0704 2.73196 24.4223 2.58371 24.8614C2.43545 25.3005 2.39502 25.7128 2.46241 26.0883C2.5298 26.4637 2.67131 26.8022 2.89032 27.1005C3.10933 27.3989 3.38225 27.6536 3.70571 27.8681C4.03253 28.0827 4.37958 28.2503 4.74684 28.3709C5.1141 28.4916 5.49484 28.5654 5.88569 28.5888H5.89242Z" fill="white"/>
<path d="M14.1379 18.1307L7.8608 15.7877L7.84733 15.8045L12.0557 21.0033L11.4323 21.8648L4.0332 18.9821L4.64306 18.1374L10.7214 20.6413L10.7349 20.6246L6.54675 15.5095L7.19704 14.6145L13.3899 16.9642L13.4034 16.9475L9.12095 11.9631L9.7207 11.1352L14.7646 17.2726L14.1413 18.1341L14.1379 18.1307Z" fill="white"/>
<path d="M35.5479 18.8296L35.5479 51.2563" stroke="white" stroke-width="2.88983" stroke-linejoin="bevel"/>
<path d="M53 34.0466C47.1826 36.9149 35.5479 44.7347 35.5479 53.0678" stroke="white" stroke-width="2.88983" stroke-linejoin="bevel"/>
<path d="M18.0958 34.0466C23.9131 36.9149 35.5479 44.7347 35.5479 53.0678" stroke="white" stroke-width="2.88983" stroke-linejoin="bevel"/>
</g>
<defs>
<clipPath id="clip0_100_1462">
<rect width="72" height="72" fill="white"/>
</clipPath>
</defs>
</svg>
